<mxfile host="app.diagrams.net" modified="2022-05-30T12:03:35.580Z" agent="5.0 (Windows NT 10.0; Win64; x64) AppleWebKit/537.36 (KHTML, like Gecko) Chrome/101.0.4951.67 Safari/537.36" etag="XEze1FsO2m0YjLVUvaS6" version="18.1.3" type="github">
  <diagram id="MEa2GAYBACYJ28zqVBgj" name="Page-1">
    <mxGraphModel dx="1038" dy="568" grid="1" gridSize="10" guides="1" tooltips="1" connect="1" arrows="1" fold="1" page="1" pageScale="1" pageWidth="850" pageHeight="1100" math="0" shadow="0">
      <root>
        <mxCell id="0" />
        <mxCell id="1" parent="0" />
        <mxCell id="7aDHLDYRfpYKgtBBdzj0-12" value="" style="rounded=0;whiteSpace=wrap;html=1;" vertex="1" parent="1">
          <mxGeometry x="340" y="60" width="450" height="510" as="geometry" />
        </mxCell>
        <mxCell id="7aDHLDYRfpYKgtBBdzj0-7" value="" style="rounded=0;whiteSpace=wrap;html=1;" vertex="1" parent="1">
          <mxGeometry x="80" y="350" width="680" height="140" as="geometry" />
        </mxCell>
        <mxCell id="7aDHLDYRfpYKgtBBdzj0-6" value="" style="edgeStyle=orthogonalEdgeStyle;rounded=0;orthogonalLoop=1;jettySize=auto;html=1;" edge="1" parent="1" source="7aDHLDYRfpYKgtBBdzj0-2" target="7aDHLDYRfpYKgtBBdzj0-3">
          <mxGeometry relative="1" as="geometry" />
        </mxCell>
        <mxCell id="7aDHLDYRfpYKgtBBdzj0-2" value="OSP-10" style="rounded=0;whiteSpace=wrap;html=1;" vertex="1" parent="1">
          <mxGeometry x="140" y="260" width="120" height="60" as="geometry" />
        </mxCell>
        <mxCell id="7aDHLDYRfpYKgtBBdzj0-3" value="NFVi-1" style="rounded=0;whiteSpace=wrap;html=1;" vertex="1" parent="1">
          <mxGeometry x="140" y="380" width="120" height="60" as="geometry" />
        </mxCell>
        <mxCell id="7aDHLDYRfpYKgtBBdzj0-5" style="edgeStyle=orthogonalEdgeStyle;rounded=0;orthogonalLoop=1;jettySize=auto;html=1;entryX=0.5;entryY=0;entryDx=0;entryDy=0;" edge="1" parent="1" source="7aDHLDYRfpYKgtBBdzj0-4" target="7aDHLDYRfpYKgtBBdzj0-2">
          <mxGeometry relative="1" as="geometry" />
        </mxCell>
        <mxCell id="7aDHLDYRfpYKgtBBdzj0-18" style="edgeStyle=orthogonalEdgeStyle;rounded=0;orthogonalLoop=1;jettySize=auto;html=1;fillColor=#f8cecc;strokeColor=#b85450;" edge="1" parent="1" source="7aDHLDYRfpYKgtBBdzj0-4" target="7aDHLDYRfpYKgtBBdzj0-9">
          <mxGeometry relative="1" as="geometry" />
        </mxCell>
        <mxCell id="7aDHLDYRfpYKgtBBdzj0-19" style="edgeStyle=orthogonalEdgeStyle;rounded=0;orthogonalLoop=1;jettySize=auto;html=1;fillColor=#f8cecc;strokeColor=#b85450;" edge="1" parent="1" source="7aDHLDYRfpYKgtBBdzj0-4" target="7aDHLDYRfpYKgtBBdzj0-10">
          <mxGeometry relative="1" as="geometry" />
        </mxCell>
        <mxCell id="7aDHLDYRfpYKgtBBdzj0-4" value="MANO-21" style="rounded=0;whiteSpace=wrap;html=1;" vertex="1" parent="1">
          <mxGeometry x="140" y="60" width="120" height="60" as="geometry" />
        </mxCell>
        <mxCell id="7aDHLDYRfpYKgtBBdzj0-8" value="NFVi-2" style="rounded=0;whiteSpace=wrap;html=1;" vertex="1" parent="1">
          <mxGeometry x="460" y="380" width="240" height="60" as="geometry" />
        </mxCell>
        <mxCell id="7aDHLDYRfpYKgtBBdzj0-15" style="edgeStyle=orthogonalEdgeStyle;rounded=0;orthogonalLoop=1;jettySize=auto;html=1;" edge="1" parent="1" source="7aDHLDYRfpYKgtBBdzj0-9" target="7aDHLDYRfpYKgtBBdzj0-8">
          <mxGeometry relative="1" as="geometry">
            <Array as="points">
              <mxPoint x="660" y="380" />
              <mxPoint x="660" y="380" />
            </Array>
          </mxGeometry>
        </mxCell>
        <mxCell id="7aDHLDYRfpYKgtBBdzj0-9" value="OCP-4" style="rounded=0;whiteSpace=wrap;html=1;" vertex="1" parent="1">
          <mxGeometry x="600" y="260" width="120" height="60" as="geometry" />
        </mxCell>
        <mxCell id="7aDHLDYRfpYKgtBBdzj0-17" style="edgeStyle=orthogonalEdgeStyle;rounded=0;orthogonalLoop=1;jettySize=auto;html=1;entryX=0.168;entryY=0.03;entryDx=0;entryDy=0;entryPerimeter=0;" edge="1" parent="1" source="7aDHLDYRfpYKgtBBdzj0-10" target="7aDHLDYRfpYKgtBBdzj0-8">
          <mxGeometry relative="1" as="geometry" />
        </mxCell>
        <mxCell id="7aDHLDYRfpYKgtBBdzj0-10" value="OSP-16" style="rounded=0;whiteSpace=wrap;html=1;" vertex="1" parent="1">
          <mxGeometry x="440" y="260" width="120" height="60" as="geometry" />
        </mxCell>
        <mxCell id="7aDHLDYRfpYKgtBBdzj0-11" value="NFVi-3" style="text;html=1;strokeColor=none;fillColor=none;align=center;verticalAlign=middle;whiteSpace=wrap;rounded=0;" vertex="1" parent="1">
          <mxGeometry x="380" y="440" width="60" height="30" as="geometry" />
        </mxCell>
        <mxCell id="7aDHLDYRfpYKgtBBdzj0-13" value="New Deployment" style="text;html=1;strokeColor=#b85450;fillColor=#f8cecc;align=center;verticalAlign=middle;whiteSpace=wrap;rounded=0;" vertex="1" parent="1">
          <mxGeometry x="505" y="520" width="120" height="30" as="geometry" />
        </mxCell>
        <mxCell id="7aDHLDYRfpYKgtBBdzj0-21" value="New integration" style="rounded=0;whiteSpace=wrap;html=1;shadow=0;glass=0;sketch=0;fillColor=default;strokeColor=none;" vertex="1" parent="1">
          <mxGeometry x="600" y="110" width="120" height="30" as="geometry" />
        </mxCell>
        <mxCell id="7aDHLDYRfpYKgtBBdzj0-22" value="New integration" style="rounded=0;whiteSpace=wrap;html=1;shadow=0;glass=0;sketch=0;fillColor=default;strokeColor=none;" vertex="1" parent="1">
          <mxGeometry x="443" y="110" width="120" height="30" as="geometry" />
        </mxCell>
      </root>
    </mxGraphModel>
  </diagram>
</mxfile>
